# xmcd
#
# Track frame offsets:
#	150
#	19436
#	38797
#	53863
#	72846
#	87701
#	101326
#	116941
#	133369
#	151174
#	181439
#	198096
#	215490
#	237140
#
# Disc length: 3637 seconds
#
# Revision: 1
# Processed by: cddbd v1.5.2PL0 Copyright (c) Steve Scherf et al.
# Submitted via: EasyCDDAExtractor 15.3.0.1
#
DISCID=ca0e330e
DTITLE=Ana Gabriel - Un Mariachi En Altos De Chavon
DYEAR=2013
DGENRE=Latin
TTITLE0=Mariachi Con Tambor
TTITLE1=Llorandote
TTITLE2=Con Las Alas Atadas
TTITLE3=Dulce Y Salado
TTITLE4=Mi Amigo
TTITLE5=Siete Veces, Siete Mas
TTITLE6=Mi Gusto Es
TTITLE7=Sin Problemas
TTITLE8=Tu Lo Decidiste
TTITLE9=Medley Ranchero (Como Olvidar, Ahora, Huelo A Soledad)
TTITLE10=La Reina
TTITLE11=A Pesar De Todos
TTITLE12=Es Demasiado Tarde
TTITLE13=Medley Ranchero (Mi Talisman, No Entiendo, Hechizo)
EXTD=
EXTT0=
EXTT1=
EXTT2=
EXTT3=
EXTT4=
EXTT5=
EXTT6=
EXTT7=
EXTT8=
EXTT9=
EXTT10=
EXTT11=
EXTT12=
EXTT13=
PLAYORDER=
